<?xml version="1.0" standalone="no"?>
<!DOCTYPE svg PUBLIC "-//W3C//DTD SVG 20010904//EN"
 "http://www.w3.org/TR/2001/REC-SVG-20010904/DTD/svg10.dtd">
<svg version="1.0" xmlns="http://www.w3.org/2000/svg"
 width="512.000000pt" height="512.000000pt" viewBox="0 0 512.000000 512.000000"
 preserveAspectRatio="xMidYMid meet">
<metadata>
Created by potrace 1.14, written by Peter Selinger 2001-2017
</metadata>
<g transform="translate(0.000000,512.000000) scale(0.100000,-0.100000)"
fill="#000000" stroke="none">
<path d="M2855 5026 c-28 -7 -64 -19 -80 -28 -17 -9 -59 -29 -95 -43 -36 -15
-72 -30 -80 -34 -11 -6 -19 2 -32 30 -24 55 -64 72 -152 67 -82 -6 -149 -34
-280 -118 -22 -14 -49 -33 -60 -43 -12 -10 -49 -40 -83 -68 -70 -56 -153 -167
-178 -237 -9 -26 -23 -59 -31 -74 -8 -15 -17 -57 -21 -93 -3 -36 -10 -65 -15
-65 -5 0 -6 -5 -3 -11 8 -12 14 -101 18 -280 2 -69 6 -130 10 -135 3 -5 10
-90 16 -189 6 -99 14 -196 17 -216 5 -36 5 -36 37 -24 18 6 71 30 119 53 48
23 90 42 93 42 4 0 31 -19 60 -42 82 -65 114 -83 204 -111 59 -19 103 -27 157
-27 94 0 149 17 339 105 39 18 95 43 125 55 30 12 78 32 105 45 104 50 185 85
197 85 6 0 19 6 27 13 9 8 52 28 96 46 44 18 89 39 100 47 11 8 30 14 42 14
13 0 23 5 23 10 0 6 7 10 15 10 8 0 15 7 15 15 0 8 6 15 14 15 20 0 26 23 26
108 0 100 -19 132 -97 170 l-58 27 0 95 c0 117 -11 138 -96 180 -74 38 -87 61
-71 131 7 28 12 61 12 75 0 33 -63 100 -108 115 -20 6 -47 21 -60 32 -20 19
-22 27 -16 77 10 93 -40 158 -136 179 -59 13 -50 13 -115 -3z"/>
<path d="M1395 4291 c-16 -10 -41 -31 -55 -46 -42 -46 -52 -47 -114 -15 -108
56 -149 51 -234 -29 -42 -39 -74 -51 -87 -32 -11 19 -114 61 -148 61 -28 0
-45 -10 -95 -60 -67 -65 -88 -71 -131 -39 -53 39 -156 25 -203 -27 -29 -33
-60 -117 -60 -164 1 -25 4 -91 8 -147 l6 -103 -31 0 c-48 0 -88 -26 -112 -72
-20 -40 -21 -52 -16 -213 3 -94 13 -200 21 -237 9 -37 13 -74 10 -83 -4 -8 -2
-15 2 -15 5 0 15 -19 22 -42 34 -108 89 -182 182 -244 42 -27 134 -74 171 -87
23 -8 28 -43 57 -395 5 -56 11 -104 13 -107 3 -2 66 -14 140 -25 74 -11 195
-29 269 -40 74 -11 162 -23 195 -26 33 -3 84 -9 114 -15 30 -5 66 -9 79 -9 24
0 25 1 18 63 -4 34 -9 107 -12 162 -3 55 -12 159 -20 232 -19 182 -20 175 26
197 21 10 41 25 44 32 3 8 14 14 24 14 27 0 142 117 149 152 3 16 13 34 22 41
17 12 55 119 66 187 3 19 -1 123 -9 230 -20 251 -23 294 -35 542 -8 173 -13
212 -29 245 -38 72 -124 133 -191 133 -14 0 -39 -8 -56 -19z"/>
<path d="M3695 3771 c-22 -11 -69 -32 -105 -47 -36 -15 -110 -49 -165 -75 -55
-26 -112 -51 -127 -54 -15 -4 -32 -13 -39 -21 -6 -8 -20 -14 -31 -14 -10 0
-36 -9 -56 -19 -39 -21 -171 -81 -211 -97 -23 -10 -21 -12 50 -73 41 -35 99
-86 129 -115 30 -29 79 -72 107 -96 37 -30 50 -47 43 -55 -18 -22 -40 -141
-39 -220 0 -96 17 -175 55 -251 31 -60 147 -194 169 -194 7 0 15 -3 17 -7 2
-5 50 -51 108 -103 58 -52 152 -140 210 -196 273 -263 278 -267 381 -272 52
-3 74 0 106 16 56 29 64 43 70 114 7 103 8 104 59 117 64 16 118 45 143 77 17
21 21 41 21 94 0 78 10 91 84 109 112 27 137 57 140 165 3 85 13 103 64 112
23 5 51 22 79 50 42 42 43 45 43 109 0 81 -26 131 -103 199 -29 25 -66 61 -84
78 -29 29 -30 34 -15 42 35 19 41 60 19 131 -15 49 -32 73 -126 182 -182 207
-497 327 -720 272 -36 -9 -73 -19 -82 -23 -10 -5 -34 8 -71 39 -30 25 -61 45
-69 45 -8 0 -32 -9 -54 -19z"/>
<path d="M2845 3005 c-5 -2 -35 -10 -65 -18 -160 -45 -213 -63 -217 -75 -3 -7
6 -25 20 -40 14 -15 27 -32 29 -39 2 -6 -144 -160 -324 -341 -251 -252 -328
-335 -328 -354 0 -14 13 -36 30 -53 25 -24 34 -27 55 -19 14 5 171 154 348
332 178 177 328 322 334 322 5 0 20 -11 33 -25 32 -34 56 -32 70 8 22 60 63
222 68 265 4 39 2 42 -19 41 -13 0 -28 -2 -34 -4z"/>
<path d="M2050 2953 c-33 -23 -86 -77 -99 -102 -16 -29 -13 -147 3 -179 22
-42 89 -101 127 -112 81 -24 159 -6 214 48 47 46 65 88 65 149 0 77 -15 113
-71 165 l-52 48 -81 0 c-61 0 -88 -4 -106 -17z m160 -135 c45 -48 6 -138 -60
-138 -41 0 -80 41 -80 85 0 48 29 75 80 75 27 0 45 -6 60 -22z"/>
<path d="M2565 2454 c-84 -43 -115 -99 -115 -205 l0 -78 53 -56 c48 -51 56
-56 109 -61 97 -11 144 1 193 51 52 54 70 111 60 192 -6 52 -12 63 -56 106
-27 26 -61 52 -75 57 -39 15 -135 12 -169 -6z m157 -147 c27 -34 22 -71 -13
-106 -36 -37 -59 -39 -99 -9 -26 19 -30 28 -30 70 0 46 2 50 33 63 41 19 87
11 109 -18z"/>
<path d="M3427 2278 c-31 -62 -140 -294 -182 -390 l-30 -67 -76 -1 c-81 0
-201 -30 -280 -70 -24 -13 -76 -55 -116 -95 -58 -58 -80 -89 -113 -161 -48
-103 -240 -497 -340 -696 -38 -76 -65 -140 -61 -142 4 -3 16 -33 26 -66 12
-41 30 -73 54 -97 33 -33 37 -34 90 -30 31 3 75 9 97 12 l42 7 32 -53 c60
-100 112 -121 223 -90 57 16 82 4 108 -52 10 -23 30 -55 43 -71 23 -27 29 -29
90 -29 35 1 74 6 85 12 38 21 79 13 95 -17 53 -101 171 -125 266 -54 50 37 54
43 121 179 33 68 62 123 64 123 2 0 20 -9 39 -21 56 -33 105 -20 171 46 59 60
77 103 135 336 30 120 32 135 28 280 -3 148 -5 157 -36 227 -17 41 -40 86 -51
100 -20 29 -19 32 25 127 95 205 102 224 91 238 -7 8 -77 74 -157 147 -80 74
-212 197 -293 274 -81 78 -151 142 -155 144 -4 1 -20 -21 -35 -50z"/>
<path d="M655 2082 c-28 -5 -103 -79 -126 -124 -30 -59 -22 -109 28 -171 32
-40 29 -61 -17 -111 -41 -44 -60 -88 -60 -136 0 -25 10 -46 42 -91 36 -52 33
-74 -15 -126 -83 -90 -85 -116 -21 -219 l46 -74 -18 -26 c-47 -65 -64 -101
-64 -138 0 -84 79 -164 184 -186 42 -9 55 -15 47 -23 -6 -6 -11 -32 -11 -58 0
-40 4 -51 31 -73 17 -14 37 -26 44 -26 7 0 15 -4 17 -10 2 -5 48 -21 103 -35
125 -33 318 -49 491 -41 110 5 146 11 217 36 137 47 226 107 310 209 l28 34
82 -7 c45 -3 91 -8 102 -11 17 -5 30 15 92 142 39 82 124 254 187 385 64 130
116 238 116 241 0 2 -51 10 -112 16 -346 37 -324 32 -337 92 -19 88 -107 231
-173 280 -96 73 -229 120 -373 134 -87 9 -601 83 -750 109 -38 6 -79 10 -90 8z"/>
</g>
</svg>
