<?xml version="1.0" standalone="no"?>
<!DOCTYPE svg PUBLIC "-//W3C//DTD SVG 20010904//EN"
 "http://www.w3.org/TR/2001/REC-SVG-20010904/DTD/svg10.dtd">
<svg version="1.0" xmlns="http://www.w3.org/2000/svg"
 width="512.000000pt" height="512.000000pt" viewBox="0 0 512.000000 512.000000"
 preserveAspectRatio="xMidYMid meet">
<metadata>
Created by potrace 1.14, written by Peter Selinger 2001-2017
</metadata>
<g transform="translate(0.000000,512.000000) scale(0.100000,-0.100000)"
fill="#000000" stroke="none">
<path d="M2860 5031 c-19 -5 -66 -23 -105 -40 -176 -81 -167 -79 -188 -36 -23
47 -85 79 -146 73 -63 -6 -193 -65 -293 -131 -79 -53 -195 -157 -247 -221 -35
-43 -81 -135 -81 -160 0 -12 -5 -27 -11 -33 -28 -28 -44 -164 -37 -303 11
-188 17 -279 23 -320 3 -19 11 -119 17 -223 14 -216 -2 -201 137 -135 135 64
128 63 169 27 151 -133 354 -181 524 -125 67 22 103 37 259 109 30 14 81 35
112 47 31 12 59 26 62 31 4 5 16 9 28 9 12 0 33 9 47 20 14 11 31 20 38 20 7
0 56 21 110 46 158 75 196 91 223 98 14 3 43 22 63 41 l38 35 -4 95 c-3 88 -5
96 -33 125 -16 16 -46 35 -66 40 -56 15 -61 27 -54 122 6 77 5 86 -17 117 -12
18 -50 48 -83 66 l-60 32 0 105 c0 123 -4 130 -93 174 -89 44 -93 49 -86 109
4 30 2 67 -5 87 -13 38 -83 98 -115 98 -12 0 -37 2 -56 4 -19 3 -51 1 -70 -3z"/>
<path d="M1405 4300 c-11 -4 -38 -26 -60 -49 -21 -23 -47 -41 -57 -41 -10 0
-40 11 -66 25 -63 32 -125 42 -160 24 -15 -8 -46 -33 -69 -56 -23 -24 -47 -43
-53 -43 -6 0 -39 16 -74 35 -44 24 -77 35 -105 35 -37 0 -49 -7 -106 -60 -35
-33 -66 -60 -69 -60 -2 0 -28 11 -58 25 -64 30 -97 31 -146 6 -47 -24 -66 -45
-92 -104 -25 -55 -26 -81 -16 -234 l8 -113 -31 0 c-46 0 -85 -24 -110 -65 -19
-32 -21 -51 -21 -174 0 -83 6 -174 16 -227 9 -49 17 -105 18 -124 2 -20 11
-53 21 -75 10 -22 27 -60 38 -85 22 -49 127 -160 150 -160 8 0 19 -6 26 -13 6
-7 44 -29 85 -47 87 -40 82 -27 96 -235 10 -140 25 -284 32 -290 7 -7 293 -55
328 -55 19 0 89 -9 155 -19 143 -23 283 -41 313 -41 22 0 22 1 16 118 -3 64
-14 198 -25 296 -25 234 -25 223 11 231 17 4 38 18 46 31 9 13 24 24 34 24 27
0 129 106 150 155 10 23 22 44 27 46 10 5 49 119 58 169 3 19 -1 130 -9 245
-16 209 -22 321 -31 530 -9 220 -18 255 -82 317 -60 58 -133 81 -188 58z"/>
<path d="M3726 3792 c-3 -5 -45 -26 -93 -46 -48 -21 -124 -56 -168 -77 -44
-20 -141 -63 -215 -94 -74 -32 -151 -66 -170 -76 -19 -9 -59 -28 -87 -41 l-53
-23 55 -52 c41 -40 206 -185 294 -259 2 -2 -5 -25 -15 -51 -16 -40 -19 -74
-19 -193 1 -128 3 -150 23 -192 12 -26 22 -50 22 -53 0 -24 133 -171 186 -206
19 -13 127 -112 353 -325 272 -256 245 -239 364 -239 l99 0 34 37 c32 35 34
42 34 105 0 38 4 73 8 78 4 6 39 20 77 33 49 15 81 32 102 54 28 30 31 41 35
105 2 40 9 78 15 84 6 6 41 20 79 30 105 29 134 68 134 182 0 72 5 80 66 96
27 7 54 25 78 51 34 38 36 44 36 106 0 50 -5 76 -22 103 -25 43 -118 141 -133
141 -5 0 -23 16 -38 35 -20 26 -24 35 -13 35 26 0 39 39 33 98 -7 69 -45 127
-159 242 -105 107 -123 120 -233 174 -115 56 -188 76 -302 86 -77 7 -106 5
-169 -11 -42 -10 -83 -19 -91 -19 -8 0 -39 20 -67 45 -53 45 -70 53 -80 37z"/>
<path d="M2770 2986 c-47 -11 -89 -24 -95 -27 -5 -4 -34 -12 -62 -20 -62 -15
-65 -27 -22 -76 l31 -35 -331 -333 c-358 -359 -358 -359 -306 -410 25 -26 50
-31 73 -16 7 4 158 153 336 329 177 177 327 322 333 322 5 0 20 -11 33 -25 40
-43 60 -30 85 55 40 137 47 165 52 213 5 44 4 47 -19 46 -12 -1 -61 -11 -108
-23z"/>
<path d="M2043 2951 c-74 -43 -103 -96 -103 -186 0 -54 5 -77 24 -110 36 -61
95 -98 166 -103 74 -5 123 11 169 57 48 48 61 80 61 153 0 127 -77 210 -200
216 -57 3 -71 -1 -117 -27z m161 -132 c36 -28 36 -81 0 -114 -36 -33 -69 -31
-105 4 -36 36 -37 73 -4 106 30 31 73 32 109 4z"/>
<path d="M2560 2453 c-80 -53 -120 -118 -120 -195 0 -68 33 -132 90 -175 45
-35 45 -35 137 -31 l93 3 50 54 c38 42 51 65 56 99 23 154 -66 262 -216 262
-44 0 -74 -5 -90 -17z m149 -144 c17 -17 31 -41 31 -54 0 -28 -54 -85 -80 -85
-10 0 -32 12 -49 26 -61 51 -29 140 51 143 9 1 30 -13 47 -30z"/>
<path d="M3399 2223 c-56 -118 -97 -206 -153 -325 l-36 -78 -72 0 c-86 0 -197
-27 -276 -67 -92 -46 -178 -142 -239 -266 -29 -59 -53 -113 -53 -121 0 -7 -7
-19 -15 -26 -8 -7 -15 -17 -15 -23 0 -9 -62 -137 -254 -527 -57 -114 -61 -127
-49 -150 7 -14 13 -34 13 -44 0 -28 45 -101 74 -120 29 -19 88 -21 152 -5 52
13 67 4 109 -67 28 -48 79 -84 120 -84 15 0 52 7 82 16 65 19 75 13 122 -72
17 -29 40 -59 53 -68 28 -20 80 -20 144 -1 69 21 93 19 103 -8 17 -42 68 -88
108 -97 111 -26 209 42 278 195 12 28 32 71 44 97 l23 47 39 -21 c51 -26 105
-17 158 25 37 31 93 123 106 177 3 14 23 96 45 182 33 131 40 174 40 257 0
128 -25 228 -82 324 -15 26 -28 53 -28 59 0 6 19 51 41 102 23 50 54 119 70
154 l29 63 -23 22 c-13 12 -108 103 -213 203 -104 99 -225 212 -269 251 -44
38 -86 77 -94 86 -7 10 -18 17 -23 17 -5 0 -32 -48 -59 -107z"/>
<path d="M643 2080 c-24 -10 -87 -75 -117 -122 -25 -38 -17 -105 18 -158 30
-45 33 -82 9 -101 -9 -8 -29 -34 -45 -58 -34 -55 -38 -125 -9 -162 60 -78 59
-100 -10 -176 -21 -23 -41 -53 -45 -67 -7 -28 2 -93 14 -98 4 -2 19 -22 35
-45 28 -44 35 -87 17 -98 -6 -4 -22 -24 -35 -46 -67 -105 13 -242 156 -269 62
-12 64 -13 44 -30 -21 -18 -19 -73 5 -103 27 -34 100 -75 152 -87 24 -5 75
-17 113 -26 56 -15 115 -18 300 -18 l230 -1 98 34 c118 40 227 109 293 186
l46 54 61 -5 c34 -2 80 -7 103 -9 l40 -4 69 139 c38 77 73 140 78 140 4 0 6 4
3 9 -3 5 30 80 73 167 43 88 91 186 106 219 15 33 35 68 43 77 12 15 12 18 1
22 -24 8 -243 36 -278 36 -19 0 -63 5 -98 11 -57 10 -63 13 -63 36 0 23 -56
163 -69 173 -4 3 -24 29 -45 58 -40 55 -133 126 -201 155 -44 18 -208 53 -295
62 -79 8 -320 42 -495 70 -82 13 -174 26 -203 30 -29 3 -58 8 -65 10 -6 2 -22
0 -34 -5z"/>
</g>
</svg>
